<?xml version="1.0" standalone="no"?>
<!DOCTYPE svg PUBLIC "-//W3C//DTD SVG 20010904//EN"
 "http://www.w3.org/TR/2001/REC-SVG-20010904/DTD/svg10.dtd">
<svg version="1.0" xmlns="http://www.w3.org/2000/svg"
 width="1019.000000pt" height="891.000000pt" viewBox="0 0 1019.000000 891.000000"
 preserveAspectRatio="xMidYMid meet">

<g transform="translate(0.000000,891.000000) scale(0.100000,-0.100000)"
fill="#000000" stroke="none">
<path d="M6383 8176 l-160 -255 -134 -102 c-74 -56 -151 -118 -171 -137 l-38
-36 0 -268 0 -268 248 -2 247 -3 3 -213 2 -214 -107 -146 c-59 -81 -145 -198
-191 -261 l-84 -113 -44 43 c-24 24 -44 46 -44 50 0 4 74 109 165 233 l165
227 0 134 0 135 -245 0 -245 0 0 233 0 232 -156 -305 c-143 -280 -178 -342
-187 -329 -2 2 -100 111 -217 243 l-214 239 -1 63 c0 70 -17 102 -75 142 -46
31 -124 31 -170 -1 -92 -61 -99 -191 -13 -263 24 -20 25 -31 54 -325 16 -167
29 -320 29 -340 l0 -36 -101 -32 c-192 -61 -365 -169 -506 -315 -44 -44 -87
-92 -96 -106 l-17 -25 -210 210 c-188 188 -210 213 -210 243 0 74 -65 155
-135 168 -139 26 -247 -69 -231 -205 6 -47 -1 -89 -45 -268 -44 -185 -53 -213
-70 -213 -10 0 -119 18 -241 40 -123 22 -226 40 -229 40 -4 0 -69 -100 -144
-221 -113 -183 -134 -224 -123 -234 7 -7 155 -129 328 -270 173 -142 316 -261
318 -265 1 -3 -124 -52 -278 -108 -278 -101 -281 -102 -312 -86 -40 21 -116
21 -155 0 -54 -27 -78 -72 -78 -143 0 -47 5 -68 21 -89 35 -47 70 -67 128 -72
l54 -4 124 -142 c69 -77 138 -157 155 -176 l31 -35 -89 -138 c-49 -76 -89
-143 -89 -148 0 -5 283 -9 705 -9 l705 0 0 -185 0 -185 344 0 344 0 6 23 c3
12 6 141 6 286 0 246 1 263 18 256 9 -3 38 -11 65 -17 l47 -11 0 -329 0 -328
-475 0 -475 0 0 180 0 180 -688 0 c-644 0 -690 -1 -704 -17 -15 -18 -138 -221
-138 -228 0 -2 158 -110 350 -240 l350 -236 188 57 188 57 302 -196 302 -196
192 90 193 90 270 -25 c148 -14 282 -28 296 -31 25 -4 32 7 152 228 83 153
155 271 211 346 47 63 88 116 90 118 2 2 130 -68 285 -156 l281 -161 290 0
290 0 1 23 c1 12 4 88 8 169 l6 148 139 -108 c117 -90 141 -113 152 -146 29
-87 98 -136 191 -136 227 0 281 314 68 391 -31 11 -35 17 -30 39 3 14 32 192
65 395 33 204 63 382 65 396 4 17 16 29 40 38 68 24 116 116 96 186 -28 101
-137 155 -224 111 -25 -14 -34 -12 -142 36 -63 28 -115 55 -115 59 0 4 99 179
220 389 121 209 220 382 220 383 0 2 -49 37 -109 77 l-108 75 4 205 c3 113 6
210 8 216 2 6 108 85 237 176 l233 165 81 -1 c73 -1 85 2 129 29 64 40 95 97
95 178 0 72 -20 117 -72 161 -65 56 -156 67 -231 29 -27 -13 -32 -13 -70 13
-65 42 -421 286 -430 294 -4 4 41 39 100 78 l108 72 -6 89 c-3 48 -9 93 -12
98 -3 5 -88 40 -189 77 l-183 67 -33 95 c-29 83 -54 125 -194 327 -88 128
-161 233 -163 235 -2 2 -75 -112 -162 -252z m-1479 -747 c25 -28 28 -37 23
-78 -4 -34 -12 -52 -36 -73 -84 -75 -216 10 -181 116 29 88 129 106 194 35z
m2406 -331 l237 -163 -18 -35 c-42 -78 -36 -166 16 -234 l33 -44 -213 -151
c-117 -83 -215 -151 -217 -151 -3 0 -3 56 0 124 l5 124 -112 62 c-68 38 -111
68 -111 77 0 19 59 468 65 498 4 18 49 54 68 55 5 0 116 -73 247 -162z m-2161
-74 c112 -124 201 -227 198 -230 -2 -3 -78 -28 -168 -55 -90 -28 -167 -56
-171 -63 -4 -6 -8 -34 -8 -62 l0 -52 -67 -10 c-38 -5 -71 -7 -75 -3 -3 3 -18
134 -32 291 -15 157 -29 301 -32 321 l-5 36 46 6 c26 2 59 14 74 25 14 12 29
21 32 21 3 1 97 -101 208 -225z m132 -539 c206 -36 424 -139 577 -273 l42 -38
-293 -404 -294 -405 -174 -3 -175 -2 -52 557 c-29 306 -49 560 -45 564 22 21
302 24 414 4z m-467 -47 c3 -18 26 -256 51 -528 25 -272 47 -507 50 -522 l5
-28 -73 0 -72 0 -327 328 -328 327 65 76 c124 148 327 284 520 351 44 15 85
27 92 28 7 0 14 -15 17 -32z m-962 -225 l197 -198 -31 -50 c-17 -27 -44 -78
-61 -113 l-29 -62 -37 39 -36 39 -302 53 c-171 30 -303 58 -303 64 0 22 83
361 91 369 5 6 16 3 26 -6 68 -59 210 -38 260 38 8 13 18 24 22 24 3 0 95 -89
203 -197z m2822 -61 c128 -74 76 -272 -72 -272 -104 0 -173 91 -144 189 28 92
130 131 216 83z m-675 -87 c29 -36 75 -101 102 -146 46 -78 109 -223 109 -253
0 -8 -86 -75 -190 -150 l-191 -134 -142 65 c-78 35 -152 69 -164 74 -13 5 -23
11 -23 13 0 5 395 552 418 579 8 9 18 17 22 17 3 0 30 -29 59 -65z m-1527
-486 c-6 -6 -558 -209 -568 -209 -7 0 -4 74 6 137 23 138 90 319 160 432 l22
34 194 -194 c106 -106 190 -196 186 -200z m1779 -71 c12 -80 18 -302 8 -313
-6 -5 -369 157 -369 165 0 10 332 240 340 235 4 -2 13 -42 21 -87z m-1619 -75
l108 -108 0 -572 0 -573 -65 25 c-337 127 -596 391 -714 727 -36 104 -59 218
-62 312 l-2 69 309 113 c170 62 311 113 314 114 2 0 53 -48 112 -107z m1225
-117 c212 -96 387 -177 390 -180 17 -16 -52 -236 -109 -350 l-39 -78 -22 19
c-12 11 -178 154 -370 317 -232 199 -345 302 -340 310 19 30 96 136 100 136 2
0 177 -79 390 -174z m-184 -307 c193 -166 362 -312 375 -324 l23 -22 -59 -74
c-98 -123 -240 -248 -264 -233 -7 4 -226 169 -485 367 l-473 359 0 114 0 114
265 0 266 0 352 -301z m-2497 5 l34 -27 -2 -285 -3 -286 -185 -78 c-102 -43
-191 -77 -198 -76 -7 2 -80 80 -162 173 l-148 170 23 25 c12 14 28 35 34 47
13 27 14 93 1 127 -8 23 -6 26 33 40 85 32 532 195 535 195 2 1 19 -11 38 -25z
m2139 -394 c198 -150 369 -281 379 -290 18 -18 16 -20 -72 -64 -159 -80 -299
-118 -478 -132 -88 -6 -241 7 -316 27 l-38 10 0 425 0 425 83 -64 c45 -35 244
-186 442 -337z m-2851 226 c72 -30 90 -119 37 -178 -26 -29 -35 -33 -81 -33
-46 0 -55 4 -81 33 -51 57 -33 148 36 178 39 17 49 17 89 0z m4527 -42 c57
-26 106 -48 108 -50 2 -2 -2 -11 -10 -20 -22 -27 -18 -127 7 -161 19 -26 71
-67 95 -75 6 -2 -17 -164 -56 -403 -79 -482 -71 -445 -93 -445 -10 0 -39 -14
-66 -30 -34 -22 -53 -44 -70 -80 l-23 -50 -142 107 -142 108 7 278 7 277 -111
0 -111 0 -150 166 -150 166 36 54 36 55 31 -30 c17 -17 78 -84 136 -150 l105
-120 91 0 90 -1 130 225 c71 124 132 225 135 225 3 0 52 -21 110 -46z m305
-53 c35 -21 60 -78 50 -115 -9 -38 -45 -75 -82 -85 -89 -25 -169 65 -134 150
28 66 103 89 166 50z m-3436 -298 c53 -49 57 -125 7 -171 -78 -73 -197 -21
-197 85 0 38 5 50 34 79 29 29 41 34 80 34 36 0 52 -6 76 -27z m2258 -434
c129 -63 129 -251 -1 -310 -78 -35 -148 -20 -204 44 -76 86 -45 220 61 268 54
24 90 24 144 -2z"/>
<path d="M9020 2184 c-85 -185 -156 -340 -158 -345 -2 -5 57 -9 131 -9 l135 0
21 51 c13 28 25 48 28 45 3 -3 27 -52 53 -108 l47 -103 -81 -3 c-81 -3 -82 -3
-93 -32 l-11 -30 239 0 c131 0 239 3 239 6 0 5 -373 823 -389 852 -4 7 -73
-131 -161 -324z"/>
<path d="M630 1930 l0 -540 120 0 120 0 0 190 0 190 100 0 100 0 0 35 0 35
-100 0 -100 0 0 110 0 110 -55 0 -55 0 0 205 0 205 -65 0 -65 0 0 -540z"/>
<path d="M800 2290 l0 -180 35 0 35 0 0 60 0 60 150 0 c165 0 206 -9 235 -54
20 -29 22 -84 6 -115 -21 -38 -51 -46 -201 -51 l-145 -5 -3 -62 -3 -63 106 0
105 0 0 -55 0 -55 60 0 c216 0 380 217 326 431 -21 82 -73 158 -139 203 -85
57 -133 66 -364 66 l-203 0 0 -180z"/>
<path d="M1660 1931 l0 -539 120 52 119 51 1 138 0 137 103 0 102 0 124 -190
124 -190 144 0 c134 0 143 1 134 18 -5 9 -84 125 -174 257 l-164 240 -197 3
-196 2 0 75 0 75 -55 0 -55 0 0 205 0 205 -65 0 -65 0 0 -539z"/>
<path d="M1830 2290 l0 -180 35 0 35 0 0 60 0 60 153 0 c175 0 210 -10 239
-70 14 -29 16 -43 7 -73 -17 -62 -42 -71 -208 -77 l-146 -5 0 -25 0 -25 185
-3 185 -3 40 -59 c22 -33 43 -60 46 -60 16 0 93 97 114 143 88 195 -18 422
-224 481 -42 12 -103 16 -258 16 l-203 0 0 -180z"/>
<path d="M3140 2456 c-82 -22 -128 -43 -198 -93 -145 -103 -236 -302 -217
-478 9 -85 13 -90 66 -77 24 6 44 10 44 9 40 -88 76 -147 115 -187 27 -27 52
-50 57 -50 5 0 23 25 41 55 l33 55 -40 46 c-48 55 -74 128 -74 205 2 182 197
328 367 275 27 -8 53 -13 58 -10 4 3 26 36 49 74 23 39 44 70 46 70 3 0 26
-15 52 -34 55 -40 102 -98 137 -165 22 -42 29 -47 50 -43 37 7 39 25 9 80 -61
113 -168 204 -291 249 -86 31 -223 39 -304 19z"/>
<path d="M5510 2173 c0 -164 4 -323 9 -353 31 -184 154 -335 327 -400 158 -59
360 -24 489 85 l40 33 -30 32 c-49 52 -59 54 -106 21 -55 -40 -139 -71 -194
-71 l-45 0 0 54 0 55 -53 15 c-68 20 -133 76 -163 140 -23 50 -24 59 -24 317
l0 266 -118 52 c-64 28 -120 51 -125 51 -4 0 -7 -134 -7 -297z"/>
<path d="M6280 2168 c0 -172 -4 -319 -10 -339 -13 -46 -56 -111 -94 -140 -16
-13 -52 -31 -80 -40 -48 -16 -51 -20 -54 -54 l-3 -37 38 7 c59 10 116 39 162
80 l41 37 60 -52 c57 -49 62 -52 79 -36 26 24 68 112 86 181 12 47 15 124 15
377 l0 318 -120 0 -120 0 0 -302z"/>
<path d="M6710 2270 l0 -200 55 0 55 0 0 -70 0 -69 113 -3 112 -3 3 -57 3 -58
178 0 179 0 46 115 c25 63 46 120 46 125 0 6 -99 10 -275 10 l-275 0 0 85 0
85 275 0 275 0 0 120 0 120 -395 0 -395 0 0 -200z"/>
<path d="M3960 2390 l0 -75 275 -275 275 -275 0 -95 0 -95 61 -62 c34 -35 64
-63 68 -63 3 0 101 95 216 210 115 116 213 210 217 210 5 0 8 -85 8 -188 l0
-188 118 -51 117 -51 3 531 c1 291 0 533 -3 536 -3 3 -157 -147 -343 -332
l-337 -337 -337 337 -338 338 0 -75z"/>
<path d="M7614 2428 c22 -53 486 -1059 496 -1077 7 -13 14 -3 36 44 29 65 29
60 -16 170 -12 28 -9 38 24 110 l37 79 -162 353 -163 353 -133 0 -133 0 14
-32z"/>
<path d="M8252 2212 l-113 -248 49 -105 49 -105 -38 -82 c-38 -82 -38 -83 -22
-118 9 -18 19 -34 22 -34 5 1 405 867 426 923 7 16 -3 17 -126 17 l-134 -1
-113 -247z"/>
<path d="M3461 2234 l-33 -56 40 -41 c115 -117 116 -294 4 -410 -73 -76 -176
-107 -271 -83 -31 8 -62 16 -70 18 -7 2 -32 -26 -57 -67 -24 -38 -48 -71 -53
-73 -19 -6 -148 128 -179 186 -28 52 -35 59 -57 54 -33 -6 -32 -22 7 -94 61
-115 176 -207 318 -254 80 -27 234 -24 318 5 169 58 291 182 348 351 19 58 26
229 12 282 l-8 26 -52 -14 c-29 -7 -53 -12 -53 -11 -1 1 -16 32 -32 69 -29 61
-117 168 -139 168 -5 0 -24 -25 -43 -56z"/>
<path d="M3960 1822 l0 -432 120 0 120 0 2 243 3 242 128 -124 127 -124 0 64
0 64 -250 250 -250 250 0 -433z"/>
<path d="M6710 1705 l0 -315 395 0 395 0 0 120 0 120 -275 0 -275 0 0 90 c0
89 0 90 25 90 22 0 25 4 25 35 l0 35 -110 0 -110 0 0 70 0 70 -35 0 -35 0 0
-315z"/>
<path d="M8753 1603 c-45 -98 -85 -186 -88 -195 -7 -17 3 -18 126 -18 l134 0
17 40 17 40 215 0 216 0 17 -37 c10 -21 18 -39 19 -41 1 -2 210 85 221 93 2 1
-9 29 -24 63 l-28 62 -282 0 c-156 0 -283 3 -283 6 0 3 16 39 35 81 19 42 35
77 35 79 0 2 -60 4 -133 4 l-133 0 -81 -177z"/>
<path d="M1167 1114 c-4 -4 -7 -106 -7 -226 l0 -218 25 0 25 0 2 176 3 176 71
-173 c96 -233 91 -233 189 6 l74 180 1 -182 c0 -176 1 -183 20 -183 19 0 20 7
20 226 l0 225 -27 -3 c-25 -3 -32 -17 -100 -183 -41 -99 -77 -183 -81 -187 -4
-4 -41 77 -83 180 -68 164 -80 187 -101 190 -13 2 -27 0 -31 -4z"/>
<path d="M2267 1113 c-4 -3 -7 -48 -7 -100 l0 -94 -29 22 c-24 18 -39 21 -81
17 -142 -14 -177 -207 -50 -273 42 -22 102 -19 134 6 l26 20 0 -20 c0 -14 6
-21 20 -21 19 0 20 7 20 225 0 181 -3 225 -13 225 -8 0 -17 -3 -20 -7z m-56
-203 c24 -13 49 -61 49 -95 0 -93 -94 -137 -162 -76 -28 25 -33 36 -33 76 0
40 5 51 33 76 34 30 77 38 113 19z"/>
<path d="M2720 895 c0 -218 1 -225 20 -225 19 0 20 7 20 225 0 218 -1 225 -20
225 -19 0 -20 -7 -20 -225z"/>
<path d="M5100 895 c0 -218 1 -225 20 -225 19 0 20 7 20 225 0 218 -1 225 -20
225 -19 0 -20 -7 -20 -225z"/>
<path d="M5757 1113 c-4 -3 -7 -105 -7 -225 0 -210 1 -218 20 -218 17 0 19 8
22 78 l3 77 76 5 c84 6 119 22 149 73 42 68 14 156 -60 195 -35 17 -61 22
-120 22 -42 0 -80 -3 -83 -7z m178 -47 c69 -29 84 -109 31 -162 -32 -32 -38
-34 -105 -34 l-71 0 0 98 c0 54 3 102 7 105 12 12 103 7 138 -7z"/>
<path d="M6450 895 c0 -218 1 -225 20 -225 19 0 20 7 20 225 0 218 -1 225 -20
225 -19 0 -20 -7 -20 -225z"/>
<path d="M7180 1105 c-18 -21 -5 -47 22 -43 26 3 37 36 16 49 -18 12 -24 11
-38 -6z"/>
<path d="M8290 1105 c-18 -21 -5 -47 22 -43 26 3 37 36 16 49 -18 12 -24 11
-38 -6z"/>
<path d="M8527 1067 c-43 -26 -47 -31 -34 -45 14 -13 21 -12 61 14 49 31 53
36 34 51 -9 7 -27 1 -61 -20z"/>
<path d="M1750 944 c-40 -25 -63 -64 -68 -114 -8 -81 44 -149 121 -157 140
-16 210 160 102 256 -29 25 -44 31 -83 31 -26 0 -58 -8 -72 -16z m132 -53 c28
-25 33 -36 33 -76 0 -40 -5 -51 -33 -76 -45 -40 -84 -39 -128 5 -94 94 29 235
128 147z"/>
<path d="M2425 929 c-80 -71 -67 -196 25 -244 55 -29 130 -12 164 37 20 28 20
34 1 41 -8 4 -27 -6 -44 -23 -38 -39 -80 -40 -120 -2 -17 15 -31 36 -33 47 -3
19 3 20 115 23 129 3 129 3 103 65 -37 89 -142 116 -211 56z m148 -41 l32 -33
-89 -3 c-49 -2 -91 0 -95 3 -3 4 9 20 27 36 44 40 84 39 125 -3z"/>
<path d="M2910 944 c-40 -25 -63 -64 -68 -114 -8 -81 44 -149 121 -157 140
-16 210 160 102 256 -29 25 -44 31 -83 31 -26 0 -58 -8 -72 -16z m132 -53 c28
-25 33 -36 33 -76 0 -40 -5 -51 -33 -76 -45 -40 -84 -39 -128 5 -94 94 29 235
128 147z"/>
<path d="M3199 931 c-55 -55 -29 -102 70 -129 78 -21 97 -44 62 -73 -30 -24
-81 -24 -113 0 -26 21 -52 14 -43 -11 4 -9 21 -23 39 -33 72 -39 176 3 176 71
0 34 -40 71 -86 80 -44 8 -94 30 -94 43 0 32 91 56 117 30 6 -6 21 -8 34 -4
l23 8 -28 23 c-42 37 -118 34 -157 -5z"/>
<path d="M3630 750 c0 -203 1 -210 20 -210 18 0 20 7 20 85 l0 84 35 -21 c27
-16 47 -19 81 -15 134 15 170 201 52 271 -38 23 -109 21 -142 -5 l-26 -20 0
20 c0 14 -6 21 -20 21 -19 0 -20 -7 -20 -210z m196 152 c29 -23 44 -54 44 -92
0 -43 -56 -100 -98 -100 -39 0 -88 41 -97 80 -8 38 11 96 38 115 29 20 87 19
113 -3z"/>
<path d="M4038 943 c-58 -36 -85 -131 -54 -191 30 -57 63 -77 126 -77 43 0 63
5 79 19 21 19 21 19 21 -2 0 -15 6 -22 20 -22 19 0 20 7 20 145 0 138 -1 145
-20 145 -14 0 -20 -7 -20 -21 l0 -20 -26 20 c-33 26 -107 28 -146 4z m123 -33
c10 -6 26 -24 34 -40 40 -77 -8 -160 -91 -160 -41 0 -94 59 -94 105 0 73 88
128 151 95z"/>
<path d="M4350 815 c0 -138 1 -145 20 -145 19 0 20 7 20 100 0 95 2 102 26
127 22 22 31 24 65 19 38 -6 40 -5 37 16 -2 19 -10 24 -46 26 -26 2 -50 -2
-59 -10 -13 -10 -17 -10 -20 0 -3 6 -13 12 -24 12 -18 0 -19 -9 -19 -145z"/>
<path d="M4628 943 c-58 -36 -85 -131 -54 -191 30 -57 63 -77 126 -77 43 0 63
5 79 19 21 19 21 19 21 -2 0 -15 6 -22 20 -22 19 0 20 7 20 145 0 138 -1 145
-20 145 -14 0 -20 -7 -20 -21 l0 -20 -26 20 c-33 26 -107 28 -146 4z m123 -33
c10 -6 26 -24 34 -40 40 -77 -8 -160 -91 -160 -41 0 -94 59 -94 105 0 73 88
128 151 95z"/>
<path d="M5288 943 c-58 -36 -85 -131 -54 -191 30 -57 63 -77 126 -77 43 0 63
5 79 19 21 19 21 19 21 -2 0 -15 6 -22 20 -22 19 0 20 7 20 145 0 138 -1 145
-20 145 -14 0 -20 -7 -20 -21 l0 -20 -26 20 c-33 26 -107 28 -146 4z m123 -33
c10 -6 26 -24 34 -40 40 -77 -8 -160 -91 -160 -41 0 -94 59 -94 105 0 73 88
128 151 95z"/>
<path d="M6160 944 c-40 -25 -63 -64 -68 -114 -8 -81 44 -149 121 -157 140
-16 210 160 102 256 -29 25 -44 31 -83 31 -26 0 -58 -8 -72 -16z m132 -53 c28
-25 33 -36 33 -76 0 -40 -5 -51 -33 -76 -45 -40 -84 -39 -128 5 -94 94 29 235
128 147z"/>
<path d="M6638 943 c-58 -36 -85 -131 -54 -191 30 -57 63 -77 126 -77 43 0 63
5 79 19 21 19 21 19 21 -2 0 -15 6 -22 20 -22 19 0 20 7 20 145 0 138 -1 145
-20 145 -14 0 -20 -7 -20 -21 l0 -20 -26 20 c-33 26 -107 28 -146 4z m123 -33
c10 -6 26 -24 34 -40 40 -77 -8 -160 -91 -160 -41 0 -94 59 -94 105 0 73 88
128 151 95z"/>
<path d="M6950 815 c0 -138 1 -145 20 -145 19 0 20 7 20 100 0 95 2 102 26
127 22 22 31 24 65 19 38 -6 40 -5 37 16 -2 19 -10 24 -46 26 -26 2 -50 -2
-59 -10 -13 -10 -17 -10 -20 0 -3 6 -13 12 -24 12 -18 0 -19 -9 -19 -145z"/>
<path d="M7180 815 c0 -138 1 -145 20 -145 19 0 20 7 20 145 0 138 -1 145 -20
145 -19 0 -20 -7 -20 -145z"/>
<path d="M7310 940 c0 -18 7 -20 75 -20 41 0 75 -2 75 -5 0 -3 -33 -54 -72
-113 -40 -58 -77 -112 -81 -119 -6 -10 17 -13 113 -13 113 0 120 1 120 20 0
18 -7 20 -81 20 -44 0 -79 3 -77 8 2 4 35 54 74 112 39 58 74 111 78 118 6 9
-19 12 -108 12 -109 0 -116 -1 -116 -20z"/>
<path d="M7678 943 c-58 -36 -85 -131 -54 -191 30 -57 63 -77 126 -77 43 0 63
5 79 19 21 19 21 19 21 -2 0 -15 6 -22 20 -22 19 0 20 7 20 145 0 138 -1 145
-20 145 -14 0 -20 -7 -20 -21 l0 -20 -26 20 c-33 26 -107 28 -146 4z m123 -33
c10 -6 26 -24 34 -40 40 -77 -8 -160 -91 -160 -41 0 -94 59 -94 105 0 73 88
128 151 95z"/>
<path d="M8040 944 c-61 -38 -88 -130 -57 -190 41 -79 130 -108 196 -62 19 12
36 29 39 35 7 23 -27 25 -54 4 -40 -31 -80 -27 -120 13 -24 24 -34 43 -34 65
0 89 89 141 153 91 23 -19 57 -18 57 0 0 5 -14 20 -31 34 -36 31 -108 35 -149
10z"/>
<path d="M8290 815 c0 -138 1 -145 20 -145 19 0 20 7 20 145 0 138 -1 145 -20
145 -19 0 -20 -7 -20 -145z"/>
<path d="M8480 944 c-40 -25 -63 -64 -68 -114 -8 -81 44 -149 121 -157 140
-16 210 160 102 256 -29 25 -44 31 -83 31 -26 0 -58 -8 -72 -16z m132 -53 c28
-25 33 -36 33 -76 0 -40 -5 -51 -33 -76 -45 -40 -84 -39 -128 5 -94 94 29 235
128 147z"/>
<path d="M8770 815 c0 -138 1 -145 20 -145 19 0 20 7 20 103 0 56 4 107 8 113
24 37 96 44 136 13 25 -20 26 -24 26 -125 0 -97 1 -104 20 -104 19 0 20 7 20
110 0 106 -1 111 -28 141 -34 38 -103 50 -151 26 -26 -13 -31 -13 -31 -1 0 8
-9 14 -20 14 -19 0 -20 -7 -20 -145z"/>
</g>
</svg>
